

Release info:

General
Format : Matroska
Format version : Version 2
File size : 440 MiB
Duration : 1h 31mn
Overall bit rate : 675 Kbps

Video
ID : 1
Format : AVC
Format/Info : Advanced Video Codec
Format profile : High@L3.0
Format settings, CABAC : Yes
Format settings, ReFrames : 4 frames
Muxing mode : Header stripping
Codec ID : V_MPEG4/ISO/AVC
Duration : 1h 31mn
Bit rate : 546 Kbps
Width : 720 pixels
Height : 406 pixels
Display aspect ratio : 16:9
Frame rate mode : Constant
Frame rate : 23.976 fps
Color space : YUV
Chroma subsampling : 4:2:0
Bit depth : 8 bits
Scan type : Progressive
Bits/(Pixel*Frame) : 0.078
Stream size : 348 MiB (79%)
Language : English
Default : Yes
Forced : No

Audio
ID : 2
Format : MPEG Audio
Format version : Version 1
Format profile : Layer 3
Mode : Joint stereo
Mode extension : MS Stereo
Muxing mode : Header stripping
Codec ID : A_MPEG/L3
Codec ID/Hint : MP3
Duration : 1h 31mn
Bit rate mode : Constant
Bit rate : 128 Kbps
Channel(s) : 2 channels
Sampling rate : 44.1 KHz
Compression mode : Lossy
Stream size : 83.5 MiB (19%)
Writing library : LAME3.98.2
Language : English
Default : Yes
Forced : No

Source:
credit to original movie ripper SuReNo (Thanks)

IMDB Info:

When the heiress of a luxury hotel chain is kidnapped at her dingy motel outside Detroit by a band of ruthless sex traffickers, her downtrodden assistant must figure out a way to rescue her.

Genre: Sci-Fi | Action | Thriller
 
http://www.imdb.com/title/tt1975320/

Screen Shot:
 
http://www.shotpix.com/images/77390708169256925066.png 
http://www.shotpix.com/images/12102983284951971054.png 
http://www.shotpix.com/images/05697089048536395684.png 
http://www.shotpix.com/images/25549164164212577864.png 
http://www.shotpix.com/images/20591196936603478694.png 
http://www.shotpix.com/images/58991294539169690701.png